<?xml version="1.0" encoding="UTF-8"?>
<svg id="Capa_1" xmlns="http://www.w3.org/2000/svg" version="1.1" viewBox="0 0 712.35 165.57">
  <!-- Generator: Adobe Illustrator 29.2.1, SVG Export Plug-In . SVG Version: 2.1.0 Build 116)  -->
  <defs>
    <style>
      .st0 {
        fill: #141414;
      }

      .st1 {
        fill: #60c86d;
      }

      .st2 {
        fill: #fff;
      }

      .st3 {
        fill: #1e1e1e;
      }
    </style>
  </defs>
  <rect class="st0" x="362.11" y="19.97" width="337.08" height="119.1" rx="7.26" ry="7.26"/>
  <g>
    <path class="st3" d="M60.55,82.74c2,1.65,3.47,3.52,4.41,5.62s1.42,4.31,1.42,6.62c0,6.37-2.24,11.29-6.72,14.76-4.48,3.47-10.89,5.2-19.23,5.2H15.11c-.75,0-1.36-.61-1.36-1.36V48.23c0-.75.61-1.36,1.36-1.36h23.54c5.39,0,9.96.75,13.71,2.26,3.75,1.51,6.57,3.61,8.46,6.3,1.89,2.7,2.84,5.87,2.84,9.51,0,3.01-.88,5.8-2.63,8.35-1.22,1.78-2.86,3.26-4.92,4.44-.99.57-.91,1.99.14,2.44,1.62.69,3.06,1.55,4.31,2.58ZM28.25,60v13.14c0,.75.61,1.36,1.36,1.36h7.03c7.78,0,11.68-2.77,11.68-8.3,0-2.45-.87-4.32-2.6-5.62-1.73-1.3-4.26-1.94-7.59-1.94h-8.51c-.75,0-1.36.61-1.36,1.36ZM48.26,100.6c1.86-1.58,2.78-3.69,2.78-6.36s-.96-4.66-2.89-6.2c-1.93-1.54-4.85-2.31-8.78-2.31h-9.77c-.75,0-1.36.61-1.36,1.36v14.51c0,.75.61,1.36,1.36,1.36h9.34c4.35,0,7.46-.79,9.31-2.36Z"/>
    <path class="st3" d="M107.61,66.78l-.05,14.65c-1.13-.42-2.15-.74-3.06-.95-.92-.21-1.97-.32-3.17-.32-1.83,0-3.61.44-5.34,1.31-1.72.88-3.43,2.43-5.12,4.68v28.79h-14.18v-46.96l14.18-1.37v6.62c3.52-4.76,7.89-7.14,13.1-7.14,2.04,0,1.88.06,3.65.69Z"/>
    <path class="st3" d="M123.06,113.05c-3.68-2.24-6.43-5.27-8.25-9.09-1.82-3.82-2.73-8.07-2.73-12.77,0-6.02,1.17-10.89,3.52-14.6,2.35-3.71,5.44-6.39,9.3-8.04,3.85-1.65,8.16-2.47,12.92-2.47,5.32,0,9.82,1.07,13.5,3.2,3.68,2.14,6.43,5.1,8.25,8.88,1.82,3.78,2.73,8.16,2.73,13.13,0,5.81-1.14,10.6-3.41,14.34-2.28,3.75-5.36,6.48-9.25,8.19-3.89,1.71-8.28,2.57-13.18,2.57-5.25,0-9.72-1.12-13.39-3.36ZM145.27,101.86c1.55-2.63,2.32-6.18,2.32-10.66,0-4.76-.83-8.37-2.48-10.82-1.65-2.45-4.21-3.68-7.65-3.68-3.73,0-6.44,1.21-8.13,3.62-1.69,2.42-2.53,6.04-2.53,10.87,0,4.55.86,8.13,2.59,10.72,1.72,2.59,4.35,3.89,7.87,3.89,3.8,0,6.48-1.31,8.03-3.94Z"/>
    <path class="st3" d="M201.17,89.31l18.28,24.79v.84h-16.76l-16.55-23.53v23.53h-14.18l-.16-73.47h14.34v47.42s17.18-21.22,17.18-21.22h15.18v.74l-17.33,20.91Z"/>
    <path class="st3" d="M266.1,94.35h-30.26c.42,3.92,1.72,6.81,3.89,8.67,2.17,1.86,4.76,2.78,7.77,2.78,2.24,0,4.41-.32,6.51-.95s4.34-1.65,6.72-3.05l4.83,8.61c-2.52,1.89-5.43,3.36-8.72,4.41-3.29,1.05-6.87,1.58-10.72,1.58-4.62,0-8.77-.84-12.45-2.52-3.68-1.68-6.62-4.36-8.82-8.04-2.21-3.68-3.31-8.42-3.31-14.24,0-5.32.93-9.91,2.78-13.76,1.86-3.85,4.55-6.78,8.09-8.77,3.54-2,7.72-2.99,12.55-2.99s8.56.91,11.82,2.73c3.26,1.82,5.69,4.31,7.3,7.46,1.61,3.15,2.42,6.72,2.42,10.72,0,1.4-.14,3.85-.42,7.35ZM239.24,78.02c-1.45,1.51-2.44,3.87-2.98,7.09h16.07v-.32c0-3.22-.67-5.53-2.02-6.93-1.35-1.4-3.13-2.1-5.36-2.1-2.36,0-4.26.75-5.71,2.26Z"/>
    <path class="st3" d="M307.06,66.62v14.81c-1.13-.42-2.15-.74-3.06-.95-.92-.21-1.97-.32-3.17-.32-1.83,0-3.61.44-5.34,1.31-1.72.88-3.43,2.43-5.12,4.68v28.79h-14.18v-46.96l14.18-1.37v6.62c3.52-4.76,7.89-7.14,13.1-7.14,2.04,0,1.83-.11,3.59.53Z"/>
    <path class="st3" d="M321.41,114.79c-3.54-1.08-6.85-2.71-9.93-4.89l6.01-9.14c2.6,1.89,5.23,3.24,7.91,4.04,2.67.81,5.24,1.21,7.7,1.21,2.32,0,4.02-.35,5.11-1.05s1.64-1.65,1.64-2.84c0-.77-.21-1.45-.63-2.05s-1.28-1.19-2.58-1.79c-1.3-.59-3.22-1.24-5.75-1.94l-3.06-.84c-5.06-1.4-8.7-3.22-10.92-5.46-2.22-2.24-3.32-5.29-3.32-9.14,0-2.94.8-5.53,2.42-7.77,1.61-2.24,3.89-3.97,6.83-5.2,2.94-1.22,6.3-1.84,10.09-1.84,7.14,0,13.62,1.72,19.44,5.15l-5.53,9.14c-2.91-1.47-5.36-2.49-7.34-3.05-1.99-.56-4.12-.84-6.38-.84-1.77,0-3.11.32-3.99.95-.89.63-1.33,1.44-1.33,2.42,0,.7.18,1.28.53,1.73.35.46,1.01.88,1.97,1.26.96.39,2.46.86,4.52,1.42l3.51.95c5.46,1.4,9.45,3.36,11.96,5.88,2.52,2.52,3.78,5.71,3.78,9.56,0,3.01-.75,5.71-2.26,8.09-1.51,2.38-3.82,4.25-6.93,5.62-3.12,1.37-6.92,2.05-11.4,2.05s-8.49-.54-12.03-1.63Z"/>
    <path class="st1" d="M483.25,114.94l-.03-73.47h14.21v73.47s-14.18,0-14.18,0Z"/>
    <path class="st1" d="M551.64,94.35h-30.26c.42,3.92,1.72,6.81,3.89,8.67,2.17,1.86,4.76,2.78,7.77,2.78,2.24,0,4.41-.32,6.51-.95,2.1-.63,4.34-1.65,6.72-3.05l4.83,8.61c-2.52,1.89-5.43,3.36-8.72,4.41-3.29,1.05-6.86,1.58-10.72,1.58-4.62,0-8.77-.84-12.45-2.52-3.68-1.68-6.62-4.36-8.82-8.04-2.21-3.68-3.31-8.42-3.31-14.24,0-5.32.93-9.91,2.78-13.76,1.85-3.85,4.55-6.78,8.09-8.77,3.54-2,7.72-2.99,12.55-2.99s8.56.91,11.82,2.73c3.26,1.82,5.69,4.31,7.3,7.46,1.61,3.15,2.42,6.72,2.42,10.72,0,1.4-.14,3.85-.42,7.35ZM524.79,78.02c-1.45,1.51-2.44,3.87-2.98,7.09h16.07v-.32c0-3.22-.67-5.53-2.02-6.93-1.35-1.4-3.13-2.1-5.36-2.1-2.36,0-4.26.75-5.71,2.26Z"/>
    <path class="st1" d="M592.6,66.62v14.81c-1.13-.42-2.15-.74-3.07-.95s-1.97-.32-3.17-.32c-1.83,0-3.61.44-5.34,1.31-1.73.88-3.43,2.43-5.12,4.68v28.79h-14.18v-46.96l14.18-1.37v6.62c3.52-4.76,7.89-7.14,13.1-7.14,2.04,0,1.83-.11,3.59.53Z"/>
    <path class="st1" d="M633.9,112.95c-4.12,2.31-8.72,3.47-13.82,3.47-2.58,0-4.97-.51-7.17-1.52-2.2-1.02-4-2.64-5.39-4.89-1.39-2.24-2.09-5.08-2.09-8.51v-22.59h-8.61v-11.24h8.61v-12.61s14.18,0,14.18,0v12.61h13.13v11.24h-13.13v20.38c0,2.1.37,3.57,1.1,4.41s1.77,1.26,3.1,1.26c.98,0,1.92-.12,2.84-.37.91-.24,2.03-.65,3.36-1.21l3.89,9.56Z"/>
    <path class="st1" d="M676.29,69.72c3.11,2.42,4.68,6.39,4.68,11.92v33.3h-12.09l-1.15-3.68c-2.6,1.89-5.18,3.22-7.75,3.99-2.57.77-5.25,1.16-8.07,1.16-2.95,0-5.55-.56-7.8-1.68s-3.99-2.68-5.22-4.67c-1.23-2-1.84-4.29-1.84-6.88,0-5.53,2.74-9.75,8.22-12.66,5.48-2.91,12.65-4.53,21.51-4.89v-1.16c0-1.96-.19-3.5-.58-4.62-.39-1.12-1.07-1.94-2.06-2.47-.99-.53-2.36-.79-4.11-.79-4.43,0-9.46,1.79-15.08,5.36l-5.48-8.61c3.78-2.45,7.48-4.27,11.08-5.46,3.61-1.19,7.55-1.79,11.82-1.79,6.16,0,10.8,1.21,13.92,3.62ZM653.14,104.91c.92.81,2.27,1.21,4.05,1.21,2.91,0,6.11-.95,9.59-2.84v-9.14c-5.19.28-8.99,1.09-11.4,2.42-2.42,1.33-3.62,2.94-3.62,4.83,0,1.54.46,2.72,1.39,3.52Z"/>
  </g>
  <g>
    <polygon class="st2" points="471.81 62.55 471.81 73.2 378.02 127.25 378.02 55.07 414.77 33.62 445.04 51.91 436.72 57.57 414.6 44.26 387.83 60.23 387.33 111.45 471.81 62.55"/>
    <polygon class="st1" points="475.47 40.44 413.61 76.86 413.61 86.67 475.47 51.41 475.47 40.44"/>
    <polygon class="st1" points="417.76 108.29 451.19 127.25 451.19 85.08 441.59 90.62 441.7 110.41 427.08 102.47 417.76 108.29"/>
  </g>
</svg>